<?xml version="1.0" encoding="UTF-8"?><svg id="Capa_1" xmlns="http://www.w3.org/2000/svg" viewBox="0 0 285 140"><defs><style>.cls-1{fill:#31658e;stroke-width:0px;}</style></defs><path class="cls-1" d="m74.95,87.53h0s30.25-51.21,30.25-51.21h-4.34s-11.57,19.58-11.57,19.58h-28.7s-11.57-19.58-11.57-19.58h-4.34s30.25,51.21,30.25,51.21h0Zm12.14-27.89l-12.14,20.55-12.14-20.55h24.28Z"/><polygon class="cls-1" points="110.43 36.33 74.95 96.34 74.95 96.34 39.46 36.33 35.15 36.33 74.98 103.68 114.74 36.33 110.43 36.33"/><path class="cls-1" d="m102.79,87.11l14.22-33.88h.27l14.17,33.88h-5l-10.62-27.04,3.11-2.02-11.88,29.07h-4.27Zm8.33-12.33h12.1l1.44,3.78h-14.81l1.26-3.78Z"/><path class="cls-1" d="m137.13,87.11v-32.54h8.86c3.21,0,5.95.5,8.21,1.49,2.26.99,4.09,2.29,5.47,3.92,1.38,1.62,2.39,3.41,3.04,5.38.64,1.96.97,3.92.97,5.87,0,2.46-.43,4.67-1.28,6.62-.85,1.95-2.03,3.62-3.53,5s-3.22,2.44-5.15,3.17c-1.93.74-3.98,1.1-6.14,1.1h-10.44Zm4.36-4.18h5.22c1.8,0,3.46-.27,4.97-.81s2.83-1.32,3.96-2.34c1.12-1.02,2-2.27,2.63-3.76.63-1.49.95-3.17.95-5.06,0-2.01-.33-3.77-.99-5.29-.66-1.51-1.56-2.78-2.7-3.8-1.14-1.02-2.43-1.79-3.87-2.32-1.44-.52-2.96-.79-4.54-.79h-5.62v24.17Z"/><path class="cls-1" d="m170.56,54.58h19.3v4.19h-14.94v10.4h13.1v4.14h-13.1v13.81h-4.36v-32.54Z"/><path class="cls-1" d="m196.62,54.58h4.37v28.35h16.51v4.18h-20.88v-32.54Z"/><path class="cls-1" d="m229.33,76.27l-12.06-21.69h5.36l9.67,17.96-1.35.09,9.58-18.04h5.31l-12.15,21.69v10.84h-4.37v-10.84Z"/></svg>