<svg width="121" height="39" viewBox="0 0 121 39" fill="none" xmlns="http://www.w3.org/2000/svg">
<path d="M22.7255 29.7661L39.8655 0.75H37.4064L30.8507 11.8442H14.589L8.03331 0.75H5.57422L22.7142 29.7661H22.7255ZM29.6042 13.9634L22.7255 25.6072L15.8469 13.9634H29.6042Z" fill="#31658E"/>
<path d="M42.8341 0.753906L22.7251 34.7562L2.62178 0.753906H0.179688L22.7478 38.9151L45.2762 0.753906H42.8341Z" fill="#31658E"/>
<path d="M39.9492 29.5288L48.0064 10.332H48.1594L56.1883 29.5288H53.3552L47.3378 14.2076L49.1 13.0631L42.3686 29.5345H39.9492V29.5288ZM44.6691 22.5425H51.5251L52.341 24.6843H43.9495L44.6634 22.5425H44.6691Z" fill="#31658E"/>
<path d="M59.3984 29.5273V11.0898H64.4186C66.2374 11.0898 67.7899 11.3731 69.0705 11.9341C70.351 12.495 71.3879 13.2316 72.1698 14.1552C72.9518 15.0731 73.524 16.0873 73.8923 17.2036C74.255 18.3141 74.442 19.4247 74.442 20.5296C74.442 21.9234 74.1983 23.1756 73.7167 24.2805C73.2351 25.3854 72.5665 26.3316 71.7166 27.1136C70.8666 27.8955 69.8921 28.4961 68.7985 28.9097C67.7049 29.329 66.5434 29.533 65.3195 29.533H59.4041L59.3984 29.5273ZM61.8689 27.1589H64.8266C65.8465 27.1589 66.787 27.0059 67.6426 26.7C68.4982 26.394 69.2461 25.952 69.8864 25.3741C70.521 24.7961 71.0196 24.0879 71.3766 23.2436C71.7335 22.3994 71.9149 21.4475 71.9149 20.3766C71.9149 19.2377 71.7279 18.2405 71.3539 17.3792C70.98 16.5236 70.47 15.804 69.8241 15.2261C69.1781 14.6482 68.4472 14.2119 67.6313 13.9116C66.8154 13.6169 65.9541 13.4639 65.0589 13.4639H61.8745V27.1589H61.8689Z" fill="#31658E"/>
<path d="M78.3477 11.0977H89.2833V13.4718H80.8181V19.3645H88.2407V21.7103H80.8181V29.5352H78.3477V11.0977Z" fill="#31658E"/>
<path d="M93.1094 11.0955H95.5855V27.1589H104.94V29.5273H93.1094V11.0898V11.0955Z" fill="#31658E"/>
<path d="M111.646 23.3874L104.812 11.0977H107.85L113.329 21.274L112.564 21.325L117.992 11.1033H121.001L114.116 23.3931V29.5352H111.64V23.3931L111.646 23.3874Z" fill="#31658E"/>
</svg>
