<svg width="76" height="76" viewBox="0 0 76 76" fill="none" xmlns="http://www.w3.org/2000/svg">
<path d="M8.95998 74.9809C7.36998 74.9809 6.01998 73.7409 5.89998 72.1609L0.46998 3.77094C0.39998 2.92094 0.69998 2.07094 1.26998 1.45094C1.84998 0.820938 2.66998 0.460938 3.52998 0.460938H71.9C72.76 0.460938 73.58 0.820938 74.16 1.45094C74.74 2.08094 75.03 2.92094 74.96 3.77094L69.53 72.1509C69.4 73.7309 68.06 74.9709 66.47 74.9709H8.95998V74.9809Z" fill="white"/>
<path d="M71.9001 0H3.53007C2.55007 0 1.60007 0.41 0.940074 1.14C0.270074 1.86 -0.0599261 2.83 0.0200739 3.81L5.45007 72.19C5.59007 74.01 7.14007 75.44 8.97007 75.44H66.4901C68.3201 75.44 69.8701 74.01 70.0101 72.19L75.4401 3.81C75.5201 2.83 75.1801 1.86 74.5201 1.14C73.8301 0.41 72.8901 0 71.9001 0ZM71.9001 0.92C73.4201 0.92 74.6201 2.22 74.5001 3.73L69.0701 72.11C68.9601 73.47 67.8301 74.51 66.4701 74.51H8.96007C7.60007 74.51 6.46007 73.46 6.36007 72.11L0.930074 3.73C0.810074 2.21 2.01007 0.92 3.53007 0.92H71.9001Z" fill="black"/>
<mask id="mask0_1553_2407" style="mask-type:luminance" maskUnits="userSpaceOnUse" x="2" y="2" width="71" height="71">
<path d="M4.18004 2.87109C3.44004 2.87109 2.86004 3.50109 2.92004 4.24109L8.29004 71.9011C8.32004 72.2911 8.64004 72.5911 9.03004 72.5911H66.41C66.8 72.5911 67.12 72.2911 67.15 71.9011L72.52 4.24109C72.58 3.50109 72 2.87109 71.26 2.87109H4.18004Z" fill="white"/>
</mask>
<g mask="url(#mask0_1553_2407)">
<path d="M19.3199 1.42188H0.919922V53.0419H19.3199V1.42188Z" fill="#E4002B"/>
</g>
<mask id="mask1_1553_2407" style="mask-type:luminance" maskUnits="userSpaceOnUse" x="2" y="2" width="71" height="71">
<path d="M4.18004 2.87109C3.44004 2.87109 2.86004 3.50109 2.92004 4.24109L8.29004 71.9011C8.32004 72.2911 8.64004 72.5911 9.03004 72.5911H66.41C66.8 72.5911 67.12 72.2911 67.15 71.9011L72.52 4.24109C72.58 3.50109 72 2.87109 71.26 2.87109H4.18004Z" fill="white"/>
</mask>
<g mask="url(#mask1_1553_2407)">
<path d="M74.5201 1.42188H56.1201V53.0419H74.5201V1.42188Z" fill="#E4002B"/>
</g>
<path d="M28.9801 34.1598C29.0001 35.0998 29.5501 37.5898 32.7101 39.9598C34.0301 40.9498 34.6301 41.3898 34.8101 41.5098V41.5198C34.9001 41.5798 34.3401 41.5698 34.1901 41.5798C33.9401 41.5998 33.1001 41.5298 32.4201 41.6498C31.8101 41.7598 31.8901 41.9098 31.8301 42.3498C31.7801 42.6998 31.8301 43.2498 31.8101 43.7298C31.7901 44.1998 31.7701 44.5398 31.9701 44.7698C32.1701 44.9898 32.2901 45.0298 33.1301 44.9798C33.9301 44.9298 36.1301 44.9298 36.3901 44.8798C36.7301 44.8098 36.6801 44.9298 36.4801 45.3598C36.1401 46.0798 35.0501 49.3898 33.3401 52.5398C33.1001 52.9798 33.7701 52.7698 34.3501 53.0498C35.3901 53.5498 35.3501 53.6898 35.6301 53.1698C35.9301 52.5998 37.4201 49.0798 37.6501 47.9998C37.6801 47.8598 37.7401 47.7398 37.7601 47.9498C37.7801 48.0998 37.8001 52.5498 37.6701 53.9498C37.6601 54.0198 37.6801 54.0998 37.7301 54.1598C37.8001 54.2398 37.9201 54.2698 38.0101 54.2898C38.5201 54.1198 39.1501 53.9898 39.6801 54.0798C39.7301 54.0698 39.7701 54.0598 39.8101 54.0498C39.8401 54.0298 39.8601 53.9998 39.8801 53.9698C39.9201 53.8998 39.9401 53.8098 39.9601 53.7298C39.9601 53.7198 39.9601 53.7198 39.9601 53.7098C39.9901 53.5898 40.0101 53.4698 40.0201 53.3498C40.0301 53.2798 40.0301 53.2098 40.0401 53.1398C40.0501 53.0498 40.0501 52.9498 40.0501 52.8598C40.0501 52.7498 40.0601 52.6398 40.0601 52.5198C40.0601 52.3898 40.0601 52.2598 40.0601 52.1298C40.0601 51.9898 40.0601 51.8398 40.0601 51.6998C40.0601 51.5398 40.0501 51.5998 40.0501 51.4398C40.0501 51.2698 40.0401 51.0998 40.0301 50.9298C40.0201 50.7498 40.0101 50.5698 40.0001 50.3998C40.0201 50.1798 40.0101 49.9998 40.0001 49.8098C39.9901 49.6198 39.9701 49.4298 39.9501 49.2398C39.9301 49.0498 39.9101 48.8498 39.8901 48.6598C39.8701 48.4698 39.8501 48.2698 39.8201 48.0798C39.8001 47.8898 39.7701 47.6898 39.7401 47.4998C39.7101 47.3098 39.6801 47.1198 39.6501 46.9298C39.6201 46.7498 39.5801 46.6698 39.5501 46.4798C39.5101 46.2998 39.4701 46.1298 39.4301 45.9498C39.3901 45.7798 39.3501 45.6098 39.3001 45.4498C39.2601 45.3198 39.2201 45.1898 39.1801 45.0498C39.1701 45.0298 39.1401 44.8498 39.1401 44.8298C39.1501 44.7598 39.2401 44.8098 39.3201 44.7898C39.3201 44.7898 39.3601 44.7798 39.3901 44.7798C39.9601 44.6998 40.9401 44.7498 41.1601 44.7598C41.3801 44.7698 42.5001 44.8698 42.8201 44.8998C43.1301 44.9298 43.5101 44.9998 43.5001 44.0498C43.5001 43.7998 43.4901 43.6498 43.5001 43.4098C43.5001 43.3798 43.5001 43.3498 43.5001 43.3098C43.5001 43.2498 43.5001 43.1898 43.5001 43.1298C43.5001 43.0998 43.5001 43.0598 43.5001 43.0298C43.5001 42.9998 43.5001 42.9698 43.5001 42.9298C43.5001 42.8998 43.5001 42.8698 43.5001 42.8398C43.5001 42.7898 43.5001 42.7398 43.5001 42.6898C43.5001 42.6798 43.5001 42.6598 43.5001 42.6498C43.5001 42.6198 43.5001 42.5798 43.5001 42.5498C43.5001 42.5398 43.5001 42.5198 43.5001 42.5098C43.5001 42.4798 43.5001 42.4598 43.5001 42.4398C43.5001 42.4298 43.5001 42.4198 43.5001 42.4198C43.5001 42.3898 43.5001 42.3598 43.5101 42.3298C43.5201 42.0998 43.4901 41.6698 43.0501 41.5598C42.5401 41.4298 41.6501 41.3998 40.8501 41.4698C40.7401 41.4798 40.7101 41.4698 40.7501 41.4398V41.4298C40.9201 41.3098 42.0801 40.6698 43.4001 39.4898C44.8501 38.1898 45.5501 37.4898 45.9901 36.5498C45.9901 36.5498 47.5801 33.4598 47.5001 30.8498C47.4801 30.3198 47.5701 30.3698 47.9001 30.3798C48.0001 30.3798 48.3701 30.3598 48.5801 30.2198C49.2601 30.0698 49.8501 27.7598 49.8501 27.7598C49.8501 27.7598 50.8601 24.2598 51.1101 22.8298C51.3301 21.5598 51.2801 20.8098 50.5001 20.4298L50.3701 20.3598C50.3101 20.3298 50.2801 20.2598 50.3001 20.1898C50.3101 20.1398 50.3301 20.0698 50.3401 20.0198C50.7201 18.6998 51.4001 17.0298 51.2401 16.3498C51.2101 16.1598 51.0501 16.0898 50.9901 16.0498C50.9101 15.9998 50.6101 15.6598 50.5301 15.4198C50.5201 15.3898 50.5101 15.3498 50.5101 15.3098C50.3001 12.8198 49.4101 9.68984 46.7701 6.96984C46.7701 6.96984 46.5901 6.79984 46.4801 6.70984C46.2501 6.50984 45.9701 6.24984 45.6301 5.99984C44.9301 5.47984 44.3701 5.06984 43.2101 4.49984C43.1501 4.50984 42.2801 4.10984 41.0001 3.79984C40.8801 3.76984 40.7601 3.73984 40.6401 3.70984C40.4501 3.66984 40.1601 3.60984 39.8201 3.56984C39.0301 3.44984 38.1501 3.37984 37.2401 3.43984C37.1301 3.42984 37.0001 3.43984 36.9701 3.43984C36.9201 3.43984 36.8601 3.43984 36.8001 3.44984C36.7401 3.44984 36.6801 3.44984 36.6101 3.45984C36.4201 3.46984 36.1601 3.49984 35.9001 3.53984C35.4701 3.59984 35.0101 3.68984 34.7201 3.75984C34.4001 3.83984 33.9701 3.92984 33.4301 4.07984C33.2101 4.13984 32.9901 4.20984 32.7701 4.27984C32.7101 4.29984 32.6501 4.31984 32.5801 4.33984C32.3401 4.41984 32.1001 4.49984 31.8601 4.58984C31.6801 4.64984 30.9401 4.97984 30.7701 5.04984C30.6901 5.08984 30.5801 5.12984 30.4701 5.17984C29.9401 5.34984 29.8301 5.64984 29.8101 5.81984C29.8001 5.92984 29.7701 6.02984 29.7301 6.12984C28.9701 7.73984 27.1901 7.89984 26.4801 7.92984C26.2901 7.93984 26.1301 7.96984 26.1901 8.14984C26.3401 8.60984 27.1801 9.47984 27.6901 9.62984C27.6801 9.69984 27.2501 9.79984 27.1601 9.81984C26.9501 9.86984 26.1101 9.79984 26.0701 9.80984H26.0601C25.1001 9.88984 24.8101 10.5398 24.7201 10.8498C24.6901 10.9498 24.7101 11.0498 24.7601 11.1298C24.9701 11.4498 25.1901 11.7198 25.3601 12.1398C25.3601 12.1398 25.3601 12.1498 25.3701 12.1498C25.4101 12.2598 25.4501 12.3898 25.4901 12.5198C25.5101 12.6998 25.6601 12.8898 25.4701 13.2498C25.1401 13.8798 24.3301 14.0798 24.2001 14.7098C24.0301 15.6098 24.3301 16.1898 24.6701 17.6698C24.9001 18.6798 25.1501 19.7298 25.3301 20.2098C25.3401 20.2398 25.3201 20.2598 25.3001 20.2698C25.2301 20.2798 25.1001 20.3098 25.0601 20.3198C24.5901 20.5098 24.4401 20.8798 24.3801 21.6098C24.2601 23.2198 25.4501 25.7098 25.8201 27.8398C25.9401 28.5598 26.2801 29.7098 26.8301 30.1798C26.9601 30.2898 27.2201 30.3598 27.3901 30.3898C27.8201 30.4598 28.0101 30.1898 28.0301 30.6298C28.0401 30.7198 28.0701 30.9598 28.0701 31.0998C28.1601 32.6398 28.9801 34.1598 28.9801 34.1598ZM29.7201 8.53984C29.8101 8.38984 30.0401 8.17984 30.2701 8.01984C30.5101 7.84984 31.6801 6.96984 32.7701 6.63984C32.9701 6.57984 33.0201 6.54984 33.1501 6.51984C33.3101 6.47984 33.4501 6.12984 33.1101 6.06984C32.7501 6.01984 32.6101 6.03984 32.4201 6.04984C32.2301 6.04984 32.1401 5.94984 32.2801 5.79984C32.4201 5.64984 32.6701 5.49984 33.1201 5.31984C34.0901 4.92984 35.8101 4.72984 36.6101 4.65984C37.6601 4.56984 37.7801 4.56984 38.4601 4.62984C39.1001 4.67984 39.6001 4.79984 39.8301 4.83984C41.0301 5.05984 42.4101 5.60984 43.6401 6.28984C44.2901 6.66984 44.9101 7.09984 45.4901 7.55984C47.2501 8.92984 49.2801 11.5498 48.9801 17.0498C48.9401 17.6998 48.8701 18.0598 48.8301 18.2198C48.7901 18.3798 48.5801 18.6498 48.4601 18.2898C48.1001 17.1098 47.6301 15.0398 46.5601 13.3998C46.4101 13.1698 46.1801 13.1898 46.2101 13.4298C46.2201 13.5298 46.2701 14.5798 46.2401 14.7798C46.0701 16.1298 46.4801 15.6098 47.0901 17.0598C47.2801 17.5098 47.5201 18.3998 47.5801 18.9698C47.6001 19.1098 47.6201 19.2798 47.6201 19.4398C47.6201 19.6398 47.5201 19.6598 47.5201 19.6598C47.1001 19.6598 46.3801 19.4598 45.9801 19.4498C45.5301 19.4398 42.4401 19.3998 41.2701 19.4998C40.1001 19.5898 39.4701 20.0098 38.8101 20.5498C38.7001 20.6398 38.5401 20.7198 38.4601 20.7698C38.4201 20.7898 38.3701 20.7998 38.3201 20.7898C38.2701 20.7798 38.1801 20.7598 38.0401 20.7398C37.7601 20.6798 37.4101 20.6598 37.1301 20.7398C36.8501 20.8198 36.7201 20.8898 36.4201 20.7198C35.9901 20.4698 35.3401 19.4698 33.0501 19.4498C31.7501 19.4398 30.0501 19.4198 29.0501 19.4698C28.7301 19.4798 28.5601 19.5198 28.4701 19.5198C28.4601 19.4798 28.4601 19.4298 28.4601 19.4198C28.4401 17.5898 29.6301 17.9998 29.7701 17.5198C30.1101 16.3398 30.1901 13.4898 32.2601 11.7398C33.2501 10.9098 33.7601 10.8698 34.6801 10.8698C35.6701 10.8698 36.6301 11.1298 37.1201 11.3698C37.5101 11.5598 37.7101 11.6898 37.8601 11.5798C38.0101 11.4598 38.4201 11.0898 38.5901 10.9598C38.7601 10.8298 38.7001 10.6298 38.5401 10.4898C38.3901 10.3598 36.9201 8.51984 34.6701 8.14984C34.1601 8.05984 33.7801 7.98984 33.3101 7.97984C33.0601 7.96984 32.8301 7.96984 32.2501 8.03984C31.3901 8.13984 30.2701 8.61984 29.5401 8.90984C29.5301 8.84984 29.6801 8.60984 29.7201 8.53984ZM47.4201 20.4098C47.3301 20.5098 47.2401 20.4498 47.0501 20.4998C46.9001 20.5398 46.8001 20.6198 46.6601 20.6098C46.4401 20.5898 46.3401 20.3298 46.4501 20.1598C46.6301 19.8998 46.8801 20.1298 47.0901 20.1598C47.1901 20.1798 47.2601 20.1498 47.3601 20.1798C47.4701 20.2198 47.4901 20.3098 47.4201 20.4098ZM44.3501 21.3298C44.3501 21.3298 43.9401 21.0498 43.8101 20.8198C43.7501 20.7098 43.7601 20.6098 43.9301 20.6098C44.5401 20.5998 45.1101 20.5898 45.3801 20.8198C45.5801 20.9898 45.5801 21.3398 45.4901 21.5598C45.3801 21.8198 45.1501 21.7398 45.0201 21.7298C44.8901 21.7098 44.3501 21.3298 44.3501 21.3298ZM44.6201 22.4198C44.5001 22.4798 44.0701 22.3298 43.9501 22.2598C43.7101 22.1198 43.5401 22.0298 43.2101 21.7498C42.9901 21.5698 42.6001 21.4798 42.2301 21.4998C41.9401 21.5098 41.6601 21.5798 41.4401 21.6298C41.2201 21.6798 41.2101 21.4898 41.2701 21.4098C41.3301 21.3398 41.6401 21.0598 42.3001 20.8798C42.4001 20.8498 42.5801 20.8598 42.6801 20.8698C42.9601 20.8998 43.2901 21.0798 43.5201 21.3198C43.7601 21.5498 44.2401 21.9598 44.5001 22.1198C44.6101 22.1998 44.8901 22.2798 44.6201 22.4198ZM35.1501 27.0198C35.2201 27.1498 35.2401 27.3598 35.2201 27.4498C35.2001 27.5598 34.8201 27.6998 34.5101 27.2298C34.2001 26.7598 34.3401 26.1798 34.5301 25.9598C34.8301 25.5998 35.2801 25.8598 35.2201 25.9898C34.9901 26.4598 35.0901 26.8998 35.1501 27.0198ZM30.7801 21.7798C30.8601 21.7198 30.8901 21.7198 31.1401 21.5798C31.3201 21.4798 31.5301 21.3598 31.7301 21.2198C32.1101 20.9698 32.8201 20.7198 33.1201 20.7198C33.3401 20.7198 33.7201 20.8198 33.9301 21.0398C34.1401 21.2698 34.2001 21.5398 33.9201 21.4898C33.6501 21.4398 33.3501 21.3698 32.8201 21.4898C32.2301 21.6298 31.8301 21.8498 31.5401 21.9798C31.2501 22.1198 30.9501 22.1498 30.8501 22.1398C30.7801 22.1498 30.5101 21.9998 30.7801 21.7798ZM30.4001 21.2498C30.1201 21.4298 29.8401 21.6398 29.6301 21.7698C29.3701 21.9398 29.0101 21.7798 29.1201 21.4198C29.1701 21.2498 29.4201 20.7998 29.8401 20.7198C29.8901 20.7098 30.1001 20.6698 30.2701 20.6498C30.4701 20.6298 30.6901 20.6098 30.8001 20.6098C31.0901 20.5998 31.1301 20.8298 30.9301 20.9598C30.7901 21.0398 30.5801 21.1398 30.4001 21.2498ZM25.6901 15.3698C25.9401 14.6998 26.3801 14.1398 26.6901 13.7298C26.9701 13.3598 26.8401 12.8798 26.6901 12.4498C26.6001 12.0498 26.3401 11.6398 26.3001 11.5298C26.2701 11.4498 26.2701 11.3898 26.3001 11.3398C26.3201 11.3298 26.3301 11.3198 26.3501 11.3098L26.8901 11.2598C28.4401 11.0598 29.8001 10.5198 30.2201 10.2898C30.4201 10.1798 30.6401 10.0898 30.8601 10.0098C31.1201 9.91984 31.3901 9.82984 31.6501 9.79984C31.8501 9.76984 32.0901 9.73984 32.3001 9.70984C32.6101 9.67984 33.0901 9.88984 32.9801 9.94984C32.7201 10.1098 31.5201 10.3798 30.4601 11.6498C29.8101 12.4198 29.6601 12.8998 29.4401 13.2598C29.2201 13.6198 29.0401 13.6998 28.7301 13.9698C28.5801 14.0998 28.2701 14.3698 28.1201 14.7998C27.9701 15.2398 27.3801 16.7598 27.3001 19.1798C27.2901 19.4598 27.2401 19.7598 26.9801 19.8598C26.7601 19.9498 26.5801 20.0898 26.5501 19.9398C26.4101 19.4098 26.0801 18.2598 25.9501 17.5398C25.9101 17.3098 25.8601 17.0798 25.8001 16.8598C25.6401 16.2298 25.5701 15.6798 25.6901 15.3698ZM26.9901 26.8198C26.5501 26.5298 26.5701 26.1398 26.4601 25.7598C26.2201 24.9598 25.9701 23.9898 25.7401 23.1698C25.6101 22.6698 25.5701 21.4998 26.2501 21.4998C26.5901 21.4998 26.8401 21.6098 26.9501 21.9298C27.1901 22.6398 26.7401 22.5198 26.8501 23.3598C26.9301 23.9598 27.0501 24.5398 27.2401 25.5598C27.3301 26.0298 27.4801 27.1498 27.0701 26.8798M28.6901 20.5898C28.5501 20.5998 28.4401 20.5198 28.2901 20.4898C28.1201 20.4498 28.0101 20.5098 27.9401 20.4098C27.8801 20.3098 27.8901 20.2198 27.9901 20.1798C28.0901 20.1398 28.1601 20.1698 28.2601 20.1498C28.4601 20.1098 28.7101 19.8798 28.9001 20.1398C29.0101 20.3098 28.9001 20.5698 28.6901 20.5898ZM29.0101 25.4998C28.9501 25.2398 29.0701 24.8398 29.6901 25.2398C29.7901 25.2998 30.0801 25.4398 30.4101 25.5298C30.6101 25.5898 30.7301 25.4998 30.7901 25.3598C30.8501 25.2198 31.0101 24.9398 30.7301 24.7998C30.4501 24.6598 29.7701 24.5398 29.3801 23.5898C29.3101 23.4198 29.4301 23.2198 29.5401 23.1698C29.6501 23.1198 29.7901 23.1498 29.9101 23.2698C30.0401 23.3898 30.3101 23.6498 30.5501 23.6598C30.7701 23.6698 30.8101 23.5798 30.8601 23.5298C31.0501 23.3198 31.5901 22.5298 32.7101 22.6698C33.1701 22.7298 33.6001 22.8298 33.7501 22.8398C33.8601 22.8498 34.1701 22.8598 34.4601 22.8098C34.8001 22.7498 35.3001 22.6398 35.0501 22.9298C34.8501 23.1598 34.6801 23.2598 34.8601 23.5098C34.8701 23.5198 34.8801 23.5398 34.8901 23.5498C35.0501 23.7698 35.0501 24.0698 34.8901 24.2898L34.8701 24.3198C34.6201 24.6398 34.1101 25.0098 33.0501 25.0798C32.5701 25.1098 32.5401 25.0898 32.5301 25.3698C32.5301 25.4798 32.5301 25.5298 32.5401 25.6098C32.5701 25.7498 32.6601 25.8098 32.9901 25.8298C33.2301 25.8398 33.6801 25.7998 33.6801 25.7998C33.7901 25.7698 33.9201 25.8398 33.8501 25.9298C33.8401 25.9398 33.7901 26.0098 33.7901 26.0198C33.5501 26.3298 33.4801 26.6098 33.4501 26.7798C33.4301 26.9198 33.3501 27.0498 33.2201 27.1198C33.0701 27.1998 32.4401 27.3298 31.9501 27.7398C31.4601 28.1498 30.4401 28.4798 30.0001 27.9798C29.5501 27.4398 29.2001 26.3298 29.0101 25.4998ZM33.6101 37.2098C32.7301 37.2398 30.4401 35.8598 29.4501 31.9298C29.1901 30.9198 29.8301 30.0998 30.2201 29.9598C30.4501 29.8698 30.5801 29.8498 30.6501 29.8398C30.7301 29.8298 31.1301 29.8298 31.1201 30.2798C31.1101 30.6398 31.4101 33.6898 32.2001 34.7898C32.4001 35.0598 32.5801 35.0698 32.6701 34.8298C32.7501 34.6098 32.8901 34.3198 32.9401 34.2098C32.9701 34.1298 33.2601 33.6898 33.3501 34.0198C33.5301 34.7298 33.9601 36.1998 34.1401 36.5798C34.4301 37.2098 33.9401 37.1998 33.6101 37.2098ZM34.1601 30.8498C33.0201 30.8398 32.4901 30.4098 32.4101 30.2798C32.3301 30.1598 32.4601 30.0598 32.5801 30.0198C32.8501 29.9298 33.3301 29.6898 33.5201 29.5398C33.7201 29.3898 34.2501 29.0598 34.5301 28.8798C34.6601 28.7998 35.3901 28.4798 35.8201 28.7798C36.4601 29.2298 37.0701 29.5298 38.1701 29.4598C38.8801 29.4198 38.8601 28.8398 39.4401 28.6598C39.9601 28.4998 40.0601 28.3698 40.2301 28.2698C40.4401 28.2298 40.6001 28.1698 40.8201 28.3898C41.1101 28.6598 41.2101 28.8698 41.5501 29.2498C42.0101 29.7698 42.5201 30.0098 42.6701 30.0398C42.8301 30.0698 42.9401 30.1998 42.9401 30.2498C42.9401 30.2998 42.8801 30.4598 42.4101 30.5898C40.8701 31.0298 39.1901 30.7498 38.3301 30.3998C37.8901 30.2298 37.4701 30.1798 36.9901 30.4098C36.5101 30.6798 35.2201 30.8598 34.1601 30.8498ZM39.9301 31.8098C39.6701 31.9098 38.9101 32.0798 38.5401 32.1098C38.1701 32.1298 36.9901 32.2098 36.7901 32.1998C36.5501 32.1898 36.2201 32.0698 35.9501 31.8198C35.9001 31.7698 35.8401 31.5998 36.0601 31.5998C36.4601 31.5898 37.1501 31.3798 39.4901 31.5798C39.7401 31.5998 39.8601 31.6098 39.9201 31.6198C39.9901 31.6098 40.1901 31.7098 39.9301 31.8098ZM49.9701 22.7198C49.6601 24.3698 49.3101 25.1898 49.0901 26.2098C48.8601 27.2698 48.4101 28.8098 47.9701 28.8498C47.5301 28.9798 47.3501 28.4698 47.0601 28.8498C46.8901 29.0798 46.7601 29.3798 46.6101 29.5698C46.5101 29.6998 46.4201 29.9798 46.4201 30.1298C46.4201 30.4298 46.4001 31.3898 46.1401 32.6398C45.7401 34.5398 45.0101 35.9198 44.2501 36.7898C42.8001 38.4598 41.4401 38.7298 41.2801 38.8198C41.0701 38.9298 40.7601 38.8698 40.6601 38.8198C40.5601 38.7698 40.4801 38.6498 40.3001 38.4698C40.1201 38.2998 40.0501 38.5598 40.0401 38.6298C40.0301 38.6898 40.1301 39.4798 39.9301 39.8398C39.5001 40.6098 39.0801 40.6798 38.8401 41.6398C38.7601 41.9598 38.8201 42.4498 38.4301 42.2298C37.4801 41.6898 36.1301 40.2298 35.8501 38.8098C35.7601 38.3798 35.8401 37.8998 36.1101 37.0798C36.2601 36.5998 36.3701 36.0598 36.3701 35.7498C36.3701 35.1998 36.1601 34.7398 36.3701 34.6898C36.7701 34.5998 36.9501 35.6298 37.1301 35.5198C37.4501 35.3398 37.2101 34.2498 37.2101 34.2498C37.2101 34.2498 37.0801 33.9398 36.5201 33.8098C36.2001 33.7298 36.0901 33.4898 36.4401 33.3198C36.7001 33.1898 37.0001 33.0298 37.3501 33.0798C39.6801 33.4098 40.3501 32.9398 41.2901 32.6898C41.4801 32.6398 41.5801 32.6198 41.7301 32.6898C41.8701 32.7598 42.2601 32.9698 42.3401 33.1698C42.4201 33.3698 42.3401 34.1398 42.4601 34.7198C42.5901 35.2998 43.0001 34.7698 43.1001 34.5398C43.2001 34.3098 43.3101 33.7498 43.3301 33.5998C43.3501 33.4598 43.4701 32.8598 43.6901 32.6798C44.1201 32.3298 44.2701 31.8598 44.3401 31.6798C44.4101 31.4998 44.5201 30.9398 44.5001 30.1098C44.4801 29.2898 44.3301 29.1998 44.1301 29.0298C43.9301 28.8498 43.7001 28.8898 43.2001 28.4298C42.7501 28.0198 42.3901 27.3598 42.0701 26.9498C41.7501 26.5398 41.2101 26.0898 40.6001 25.9398C39.9901 25.7898 40.2401 26.3498 40.2801 26.5098C40.3101 26.6198 40.4501 27.1198 40.2501 27.2798C40.0501 27.4398 38.8201 28.2698 37.7201 27.9798C36.4101 27.6398 35.9601 26.9098 35.9301 26.2098C35.9101 25.7098 36.1501 25.2298 36.4501 24.6598C36.6201 24.3298 36.6901 23.7698 36.7701 23.2298C36.8301 22.7998 36.9401 22.1798 37.0301 21.9598C37.1001 21.7998 37.2501 21.6298 37.6101 21.6498C37.9601 21.6698 38.1901 21.8398 38.2601 22.1498C38.4901 23.1998 38.8601 23.4698 38.9801 23.5498C39.1101 23.6298 39.3401 23.4598 39.4401 23.3998C39.5301 23.3398 39.7701 23.0998 39.7001 22.9698C39.5901 22.7698 39.5201 22.6498 39.5001 22.5298C39.4601 22.3298 39.7101 22.3498 39.7601 22.3898C40.1701 22.7098 40.5601 22.7398 41.2701 22.8598C42.5101 23.0698 42.6901 22.6098 43.5401 22.7598C43.6501 22.7798 43.8601 22.8698 43.9301 22.9998C43.9901 23.1098 44.0901 23.3598 44.1901 23.4098C44.2901 23.4498 44.5501 23.4698 44.6801 23.4898C44.8601 23.5198 45.1801 23.4998 45.1301 23.8298C44.9901 24.7198 43.9601 24.9698 43.4801 25.0498C43.2801 25.0798 43.1901 25.0998 43.1601 25.1298C43.0601 25.2198 43.0501 25.4998 43.1701 25.6798C43.2501 25.8098 43.6401 25.8198 44.1801 25.7098C44.7401 25.5998 45.2701 25.3298 45.6901 24.6798C46.1401 23.9798 46.3801 22.4498 46.4301 22.1598C46.4801 21.8698 46.6001 21.3898 46.7501 21.2998C46.9101 21.1998 47.6301 20.9798 47.7301 20.9998C47.8501 21.0198 47.9401 21.0798 48.0001 21.3598C48.0601 21.6398 47.9501 23.3298 47.9501 23.5898C47.9501 23.8598 48.0901 23.8598 48.1601 23.8198C48.3301 23.7398 48.7801 23.4398 48.8801 23.0898C48.9601 22.8298 48.7401 22.4598 48.8501 22.0998C49.0201 21.5398 49.1901 21.3898 49.3001 21.4098C50.0101 21.4798 50.1501 21.7898 49.9801 22.6898M59.8401 57.2298C60.0501 57.2898 60.1701 57.4998 60.1201 57.6998L59.3901 60.9998C59.3601 61.1598 59.2201 61.2698 59.0601 61.2698H58.0201C57.8201 61.2698 57.6701 61.1098 57.6801 60.9098C57.6801 60.8698 57.6801 60.8498 57.6801 60.8498C57.7301 59.7798 57.0501 58.9798 55.5201 58.9798C52.9701 58.9798 51.1201 61.0698 50.8801 63.8198C50.6301 66.6498 52.6101 68.2999 55.3501 68.2999C56.7601 68.2999 57.8701 68.0298 58.4901 67.8298C58.7401 67.7498 58.9801 67.9698 58.9301 68.2198L58.6101 69.9198C58.5801 70.0698 58.4801 70.1798 58.3401 70.2299C57.7801 70.4099 56.2001 70.8298 53.7801 70.8298C48.0401 70.8298 45.7101 67.5298 46.0701 64.1598C46.3901 61.1598 48.3701 56.7498 56.1901 56.7498C57.6901 56.7398 58.8901 56.9798 59.8401 57.2298ZM27.4801 57.2398C27.5201 57.0698 27.6701 56.9498 27.8401 56.9498H33.4801C33.7001 56.9498 33.8601 57.1498 33.8201 57.3698L33.6301 58.2398C33.6001 58.3898 33.4801 58.4898 33.3301 58.5098C33.3001 58.5098 33.2901 58.5098 33.2901 58.5098C32.8701 58.5698 32.1001 58.6998 31.4701 59.1998L26.7801 63.0998L30.3901 67.9799C31.0901 68.8799 31.4301 69.0398 32.1401 69.0499C32.3701 69.0499 32.5401 69.2698 32.4901 69.4998L32.2901 70.3798C32.2601 70.5298 32.1201 70.6398 31.9601 70.6398H29.1501C26.0401 70.6398 25.1801 69.2798 22.5901 64.5398L21.8301 67.9998C21.7201 68.5398 22.1601 68.8198 22.4901 68.9598C22.5001 68.9698 22.5201 68.9698 22.5301 68.9799C22.6901 69.0398 22.7801 69.2098 22.7401 69.3699L22.5201 70.3798C22.4901 70.5398 22.3501 70.6498 22.1901 70.6498H15.6801C15.4501 70.6498 15.2801 70.4398 15.3301 70.2098L15.5201 69.3398C15.5501 69.1798 15.6901 69.0698 15.8501 69.0499C15.8601 69.0499 15.8601 69.0499 15.8701 69.0499C16.4701 68.9799 17.0901 68.5998 17.4801 66.7598L18.9601 59.9998C19.1501 59.0998 18.7001 58.7598 18.3101 58.6098C18.3101 58.6098 18.2801 58.5998 18.2501 58.5898C18.0701 58.5298 17.9701 58.3398 18.0101 58.1598L18.2101 57.2598C18.2501 57.0898 18.4001 56.9698 18.5701 56.9698H24.7601C24.9801 56.9698 25.1401 57.1698 25.0901 57.3798L24.8901 58.2698C24.8601 58.3998 24.7601 58.5098 24.6401 58.5398C24.6201 58.5398 24.6101 58.5498 24.5901 58.5498C24.3001 58.6398 23.8401 58.8798 23.7001 59.4598L22.8801 63.2198L27.6801 59.2298C27.9701 58.9898 27.8901 58.6798 27.5601 58.5498C27.3701 58.4898 27.2601 58.2998 27.3001 58.1098L27.4801 57.2398ZM44.8301 60.9998C44.6201 60.9998 44.4701 60.8198 44.4901 60.6198C44.4901 60.5898 44.4901 60.5698 44.4901 60.5698C44.5501 59.7098 44.2501 59.2098 43.2901 59.2098H40.3101L39.5101 62.8298H43.7701C43.9901 62.8298 44.1501 63.0298 44.1001 63.2498L43.6901 65.1198C43.6601 65.2798 43.5201 65.3898 43.3601 65.3898H38.9501C38.9501 65.3898 38.4601 67.6098 38.4401 67.7098C38.2801 68.4298 38.7701 68.7998 39.0901 68.9598C39.1101 68.9698 39.1201 68.9799 39.1401 68.9799C39.2801 69.0398 39.3601 69.1998 39.3201 69.3498L39.0901 70.3699C39.0601 70.5299 38.9201 70.6398 38.7601 70.6398H33.5701C33.3501 70.6398 33.1901 70.4398 33.2401 70.2299L35.5001 59.9898C35.7301 59.0898 35.2001 58.7198 34.8201 58.5698C34.8101 58.5698 34.7901 58.5598 34.7801 58.5598C34.6101 58.4998 34.5101 58.3198 34.5501 58.1498L34.7501 57.2498C34.7901 57.0798 34.9401 56.9598 35.1101 56.9598H46.6401C46.8601 56.9598 47.0201 57.1598 46.9701 57.3798L46.2201 60.7398C46.2201 60.8798 46.0801 60.9998 45.9201 60.9998H44.8301Z" fill="black"/>
</svg>
